<?xml version="1.0" encoding="UTF-8" standalone="no"?><!-- Generator: Gravit.io --><svg xmlns="http://www.w3.org/2000/svg" xmlns:xlink="http://www.w3.org/1999/xlink" style="isolation:isolate" viewBox="509 -189.152 97.821 125.152" width="97.821pt" height="125.152pt"><defs><clipPath id="_clipPath_l6I8oyqPtN6CITPH5U6a3JUx3F46RtwQ"><rect x="509" y="-189.152" width="97.821" height="125.152"/></clipPath></defs><g clip-path="url(#_clipPath_l6I8oyqPtN6CITPH5U6a3JUx3F46RtwQ)"><linearGradient id="_lgradient_1" x1="0.3773307171564069" y1="0.7864389660798563" x2="0.9906981811023186" y2="-0.17239632238046487" gradientTransform="matrix(97.821,0,0,125.152,509,-189.152)" gradientUnits="userSpaceOnUse"><stop offset="0%" stop-opacity="1" style="stop-color:rgb(128,237,153)"/><stop offset="100%" stop-opacity="1" style="stop-color:rgb(34,87,122)"/></linearGradient><path d=" M 604.466 -179.505 Q 571.355 -146.283 600.466 -111.505 Q 610.689 -166.283 604.466 -179.505 Z  M 601.466 -184.505 Q 556.577 -136.283 596.466 -93.505 Q 584.577 -46.394 570.466 -74.505 Q 550.911 -148.061 541.466 -112.505 Q 532.022 -76.95 519.466 -101.505 Q 497.577 -177.839 521.466 -174.505 Q 526.675 -173.839 532.466 -169.505 Q 538.258 -165.172 543.466 -164.505 Q 556.716 -163.672 565.466 -178.505 Q 574.216 -193.339 596.466 -187.505 L 601.466 -184.505 Z " fill-rule="evenodd" fill="url(#_lgradient_1)"/></g></svg>