<?xml version="1.0" encoding="UTF-8" standalone="no"?><!-- Generator: Gravit.io --><svg xmlns="http://www.w3.org/2000/svg" xmlns:xlink="http://www.w3.org/1999/xlink" style="isolation:isolate" viewBox="509 -189.152 445.696 125.152" width="445.696pt" height="125.152pt"><defs><clipPath id="_clipPath_KQezA8dZ90XMpKbXO6QmXaM70dQXueoo"><rect x="509" y="-189.152" width="445.696" height="125.152"/></clipPath></defs><g clip-path="url(#_clipPath_KQezA8dZ90XMpKbXO6QmXaM70dQXueoo)"><path d=" M 604.466 -179.505 Q 571.355 -146.283 600.466 -111.505 Q 610.689 -166.283 604.466 -179.505 L 604.466 -179.505 Z  M 601.466 -184.505 Q 556.577 -136.283 596.466 -93.505 Q 584.577 -46.394 570.466 -74.505 Q 550.911 -148.061 541.466 -112.505 Q 532.022 -76.95 519.466 -101.505 Q 497.577 -177.839 521.466 -174.505 Q 526.675 -173.839 532.466 -169.505 Q 538.258 -165.172 543.466 -164.505 Q 556.716 -163.672 565.466 -178.505 Q 574.216 -193.339 596.466 -187.505 L 601.466 -184.505 L 601.466 -184.505 Z  M 649.146 -113.731 L 649.146 -113.731 Q 652.226 -113.731 654.711 -115.236 L 654.711 -115.236 L 654.711 -115.236 Q 657.196 -116.741 658.666 -119.506 L 658.666 -119.506 L 658.666 -119.506 Q 660.136 -122.271 660.136 -125.981 L 660.136 -125.981 L 660.136 -125.981 Q 660.136 -129.691 658.666 -132.456 L 658.666 -132.456 L 658.666 -132.456 Q 657.196 -135.221 654.711 -136.726 L 654.711 -136.726 L 654.711 -136.726 Q 652.226 -138.231 649.146 -138.231 L 649.146 -138.231 L 649.146 -138.231 Q 646.066 -138.231 643.581 -136.726 L 643.581 -136.726 L 643.581 -136.726 Q 641.096 -135.221 639.626 -132.456 L 639.626 -132.456 L 639.626 -132.456 Q 638.156 -129.691 638.156 -125.981 L 638.156 -125.981 L 638.156 -125.981 Q 638.156 -122.271 639.626 -119.506 L 639.626 -119.506 L 639.626 -119.506 Q 641.096 -116.741 643.581 -115.236 L 643.581 -115.236 L 643.581 -115.236 Q 646.066 -113.731 649.146 -113.731 L 649.146 -113.731 L 649.146 -113.731 Z  M 699.336 -114.361 L 706.266 -114.361 L 706.266 -114.361 Q 711.586 -114.361 714.771 -117.406 L 714.771 -117.406 L 714.771 -117.406 Q 717.956 -120.451 717.956 -125.981 L 717.956 -125.981 L 717.956 -125.981 Q 717.956 -131.511 714.771 -134.556 L 714.771 -134.556 L 714.771 -134.556 Q 711.586 -137.601 706.266 -137.601 L 706.266 -137.601 L 699.336 -137.601 L 699.336 -114.361 L 699.336 -114.361 Z  M 766.326 -113.731 L 766.326 -113.731 Q 769.406 -113.731 771.891 -115.236 L 771.891 -115.236 L 771.891 -115.236 Q 774.376 -116.741 775.846 -119.506 L 775.846 -119.506 L 775.846 -119.506 Q 777.316 -122.271 777.316 -125.981 L 777.316 -125.981 L 777.316 -125.981 Q 777.316 -129.691 775.846 -132.456 L 775.846 -132.456 L 775.846 -132.456 Q 774.376 -135.221 771.891 -136.726 L 771.891 -136.726 L 771.891 -136.726 Q 769.406 -138.231 766.326 -138.231 L 766.326 -138.231 L 766.326 -138.231 Q 763.246 -138.231 760.761 -136.726 L 760.761 -136.726 L 760.761 -136.726 Q 758.276 -135.221 756.806 -132.456 L 756.806 -132.456 L 756.806 -132.456 Q 755.336 -129.691 755.336 -125.981 L 755.336 -125.981 L 755.336 -125.981 Q 755.336 -122.271 756.806 -119.506 L 756.806 -119.506 L 756.806 -119.506 Q 758.276 -116.741 760.761 -115.236 L 760.761 -115.236 L 760.761 -115.236 Q 763.246 -113.731 766.326 -113.731 L 766.326 -113.731 L 766.326 -113.731 Z  M 832.196 -150.481 L 848.296 -150.481 L 848.296 -101.481 L 834.716 -101.481 L 816.096 -123.741 L 816.096 -101.481 L 799.996 -101.481 L 799.996 -150.481 L 813.576 -150.481 L 832.196 -128.221 L 832.196 -150.481 L 832.196 -150.481 Z  M 866.916 -101.481 L 866.916 -137.671 L 852.566 -137.671 L 852.566 -150.481 L 897.786 -150.481 L 897.786 -137.671 L 883.436 -137.671 L 883.436 -101.481 L 866.916 -101.481 L 866.916 -101.481 Z  M 927.046 -113.731 L 927.046 -113.731 Q 930.126 -113.731 932.611 -115.236 L 932.611 -115.236 L 932.611 -115.236 Q 935.096 -116.741 936.566 -119.506 L 936.566 -119.506 L 936.566 -119.506 Q 938.036 -122.271 938.036 -125.981 L 938.036 -125.981 L 938.036 -125.981 Q 938.036 -129.691 936.566 -132.456 L 936.566 -132.456 L 936.566 -132.456 Q 935.096 -135.221 932.611 -136.726 L 932.611 -136.726 L 932.611 -136.726 Q 930.126 -138.231 927.046 -138.231 L 927.046 -138.231 L 927.046 -138.231 Q 923.966 -138.231 921.481 -136.726 L 921.481 -136.726 L 921.481 -136.726 Q 918.996 -135.221 917.526 -132.456 L 917.526 -132.456 L 917.526 -132.456 Q 916.056 -129.691 916.056 -125.981 L 916.056 -125.981 L 916.056 -125.981 Q 916.056 -122.271 917.526 -119.506 L 917.526 -119.506 L 917.526 -119.506 Q 918.996 -116.741 921.481 -115.236 L 921.481 -115.236 L 921.481 -115.236 Q 923.966 -113.731 927.046 -113.731 L 927.046 -113.731 L 927.046 -113.731 Z  M 649.146 -100.361 L 649.146 -100.361 Q 641.236 -100.361 634.936 -103.651 L 634.936 -103.651 L 634.936 -103.651 Q 628.636 -106.941 625.066 -112.786 L 625.066 -112.786 L 625.066 -112.786 Q 621.496 -118.631 621.496 -125.981 L 621.496 -125.981 L 621.496 -125.981 Q 621.496 -133.331 625.066 -139.176 L 625.066 -139.176 L 625.066 -139.176 Q 628.636 -145.021 634.936 -148.311 L 634.936 -148.311 L 634.936 -148.311 Q 641.236 -151.601 649.146 -151.601 L 649.146 -151.601 L 649.146 -151.601 Q 657.056 -151.601 663.356 -148.311 L 663.356 -148.311 L 663.356 -148.311 Q 669.656 -145.021 673.226 -139.176 L 673.226 -139.176 L 673.226 -139.176 Q 676.796 -133.331 676.796 -125.981 L 676.796 -125.981 L 676.796 -125.981 Q 676.796 -118.631 673.226 -112.786 L 673.226 -112.786 L 673.226 -112.786 Q 669.656 -106.941 663.356 -103.651 L 663.356 -103.651 L 663.356 -103.651 Q 657.056 -100.361 649.146 -100.361 L 649.146 -100.361 L 649.146 -100.361 Z  M 682.816 -101.481 L 682.816 -150.481 L 706.966 -150.481 L 706.966 -150.481 Q 715.156 -150.481 721.421 -147.506 L 721.421 -147.506 L 721.421 -147.506 Q 727.686 -144.531 731.151 -139.001 L 731.151 -139.001 L 731.151 -139.001 Q 734.616 -133.471 734.616 -125.981 L 734.616 -125.981 L 734.616 -125.981 Q 734.616 -118.491 731.151 -112.961 L 731.151 -112.961 L 731.151 -112.961 Q 727.686 -107.431 721.421 -104.456 L 721.421 -104.456 L 721.421 -104.456 Q 715.156 -101.481 706.966 -101.481 L 706.966 -101.481 L 682.816 -101.481 L 682.816 -101.481 Z  M 766.326 -100.361 L 766.326 -100.361 Q 758.416 -100.361 752.116 -103.651 L 752.116 -103.651 L 752.116 -103.651 Q 745.816 -106.941 742.246 -112.786 L 742.246 -112.786 L 742.246 -112.786 Q 738.676 -118.631 738.676 -125.981 L 738.676 -125.981 L 738.676 -125.981 Q 738.676 -133.331 742.246 -139.176 L 742.246 -139.176 L 742.246 -139.176 Q 745.816 -145.021 752.116 -148.311 L 752.116 -148.311 L 752.116 -148.311 Q 758.416 -151.601 766.326 -151.601 L 766.326 -151.601 L 766.326 -151.601 Q 774.236 -151.601 780.536 -148.311 L 780.536 -148.311 L 780.536 -148.311 Q 786.836 -145.021 790.406 -139.176 L 790.406 -139.176 L 790.406 -139.176 Q 793.976 -133.331 793.976 -125.981 L 793.976 -125.981 L 793.976 -125.981 Q 793.976 -118.631 790.406 -112.786 L 790.406 -112.786 L 790.406 -112.786 Q 786.836 -106.941 780.536 -103.651 L 780.536 -103.651 L 780.536 -103.651 Q 774.236 -100.361 766.326 -100.361 L 766.326 -100.361 L 766.326 -100.361 Z  M 927.046 -100.361 L 927.046 -100.361 Q 919.136 -100.361 912.836 -103.651 L 912.836 -103.651 L 912.836 -103.651 Q 906.536 -106.941 902.966 -112.786 L 902.966 -112.786 L 902.966 -112.786 Q 899.396 -118.631 899.396 -125.981 L 899.396 -125.981 L 899.396 -125.981 Q 899.396 -133.331 902.966 -139.176 L 902.966 -139.176 L 902.966 -139.176 Q 906.536 -145.021 912.836 -148.311 L 912.836 -148.311 L 912.836 -148.311 Q 919.136 -151.601 927.046 -151.601 L 927.046 -151.601 L 927.046 -151.601 Q 934.956 -151.601 941.256 -148.311 L 941.256 -148.311 L 941.256 -148.311 Q 947.556 -145.021 951.126 -139.176 L 951.126 -139.176 L 951.126 -139.176 Q 954.696 -133.331 954.696 -125.981 L 954.696 -125.981 L 954.696 -125.981 Q 954.696 -118.631 951.126 -112.786 L 951.126 -112.786 L 951.126 -112.786 Q 947.556 -106.941 941.256 -103.651 L 941.256 -103.651 L 941.256 -103.651 Q 934.956 -100.361 927.046 -100.361 L 927.046 -100.361 L 927.046 -100.361 Z " fill-rule="evenodd" fill="rgb(255,255,255)"/></g></svg>